<svg id="visual" viewBox="0 0 900 600" width="900" height="600" xmlns="http://www.w3.org/2000/svg" xmlns:xlink="http://www.w3.org/1999/xlink" version="1.1"><path d="M0 73L13.7 79C27.3 85 54.7 97 82 108C109.3 119 136.7 129 163.8 130C191 131 218 123 245.2 119C272.3 115 299.7 115 327 121C354.3 127 381.7 139 409 139C436.3 139 463.7 127 491 122C518.3 117 545.7 119 573 123C600.3 127 627.7 133 654.8 130C682 127 709 115 736.2 116C763.3 117 790.7 131 818 139C845.3 147 872.7 149 886.3 150L900 151L900 0L886.3 0C872.7 0 845.3 0 818 0C790.7 0 763.3 0 736.2 0C709 0 682 0 654.8 0C627.7 0 600.3 0 573 0C545.7 0 518.3 0 491 0C463.7 0 436.3 0 409 0C381.7 0 354.3 0 327 0C299.7 0 272.3 0 245.2 0C218 0 191 0 163.8 0C136.7 0 109.3 0 82 0C54.7 0 27.3 0 13.7 0L0 0Z" fill="#dfeee3"></path><path d="M0 187L13.7 182C27.3 177 54.7 167 82 175C109.3 183 136.7 209 163.8 210C191 211 218 187 245.2 184C272.3 181 299.7 199 327 214C354.3 229 381.7 241 409 241C436.3 241 463.7 229 491 225C518.3 221 545.7 225 573 226C600.3 227 627.7 225 654.8 224C682 223 709 223 736.2 222C763.3 221 790.7 219 818 217C845.3 215 872.7 213 886.3 212L900 211L900 149L886.3 148C872.7 147 845.3 145 818 137C790.7 129 763.3 115 736.2 114C709 113 682 125 654.8 128C627.7 131 600.3 125 573 121C545.7 117 518.3 115 491 120C463.7 125 436.3 137 409 137C381.7 137 354.3 125 327 119C299.7 113 272.3 113 245.2 117C218 121 191 129 163.8 128C136.7 127 109.3 117 82 106C54.7 95 27.3 83 13.7 77L0 71Z" fill="#d7eadc"></path><path d="M0 223L13.7 221C27.3 219 54.7 215 82 228C109.3 241 136.7 271 163.8 277C191 283 218 265 245.2 264C272.3 263 299.7 279 327 288C354.3 297 381.7 299 409 298C436.3 297 463.7 293 491 287C518.3 281 545.7 273 573 279C600.3 285 627.7 305 654.8 313C682 321 709 317 736.2 312C763.3 307 790.7 301 818 299C845.3 297 872.7 299 886.3 300L900 301L900 209L886.3 210C872.7 211 845.3 213 818 215C790.7 217 763.3 219 736.2 220C709 221 682 221 654.8 222C627.7 223 600.3 225 573 224C545.7 223 518.3 219 491 223C463.7 227 436.3 239 409 239C381.7 239 354.3 227 327 212C299.7 197 272.3 179 245.2 182C218 185 191 209 163.8 208C136.7 207 109.3 181 82 173C54.7 165 27.3 175 13.7 180L0 185Z" fill="#cfe6d6"></path><path d="M0 397L13.7 403C27.3 409 54.7 421 82 428C109.3 435 136.7 437 163.8 430C191 423 218 407 245.2 417C272.3 427 299.7 463 327 483C354.3 503 381.7 507 409 510C436.3 513 463.7 515 491 502C518.3 489 545.7 461 573 448C600.3 435 627.7 437 654.8 434C682 431 709 423 736.2 418C763.3 413 790.7 411 818 425C845.3 439 872.7 469 886.3 484L900 499L900 299L886.3 298C872.7 297 845.3 295 818 297C790.7 299 763.3 305 736.2 310C709 315 682 319 654.8 311C627.7 303 600.3 283 573 277C545.7 271 518.3 279 491 285C463.7 291 436.3 295 409 296C381.7 297 354.3 295 327 286C299.7 277 272.3 261 245.2 262C218 263 191 281 163.8 275C136.7 269 109.3 239 82 226C54.7 213 27.3 217 13.7 219L0 221Z" fill="#c5e1ce"></path><path d="M0 601L13.7 601C27.3 601 54.7 601 82 601C109.3 601 136.7 601 163.8 601C191 601 218 601 245.2 601C272.3 601 299.7 601 327 601C354.3 601 381.7 601 409 601C436.3 601 463.7 601 491 601C518.3 601 545.7 601 573 601C600.3 601 627.7 601 654.8 601C682 601 709 601 736.2 601C763.3 601 790.7 601 818 601C845.3 601 872.7 601 886.3 601L900 601L900 497L886.3 482C872.7 467 845.3 437 818 423C790.7 409 763.3 411 736.2 416C709 421 682 429 654.8 432C627.7 435 600.3 433 573 446C545.7 459 518.3 487 491 500C463.7 513 436.3 511 409 508C381.7 505 354.3 501 327 481C299.7 461 272.3 425 245.2 415C218 405 191 421 163.8 428C136.7 435 109.3 433 82 426C54.7 419 27.3 407 13.7 401L0 395Z" fill="#bcdcc6"></path></svg>