<svg id="visual" viewBox="0 0 900 600" width="900" height="600" xmlns="http://www.w3.org/2000/svg" xmlns:xlink="http://www.w3.org/1999/xlink" version="1.1"><path d="M0 79L13.7 81C27.3 83 54.7 87 82 90C109.3 93 136.7 95 163.8 97C191 99 218 101 245.2 100C272.3 99 299.7 95 327 87C354.3 79 381.7 67 409 62C436.3 57 463.7 59 491 61C518.3 63 545.7 65 573 70C600.3 75 627.7 83 654.8 81C682 79 709 67 736.2 59C763.3 51 790.7 47 818 45C845.3 43 872.7 43 886.3 43L900 43L900 0L886.3 0C872.7 0 845.3 0 818 0C790.7 0 763.3 0 736.2 0C709 0 682 0 654.8 0C627.7 0 600.3 0 573 0C545.7 0 518.3 0 491 0C463.7 0 436.3 0 409 0C381.7 0 354.3 0 327 0C299.7 0 272.3 0 245.2 0C218 0 191 0 163.8 0C136.7 0 109.3 0 82 0C54.7 0 27.3 0 13.7 0L0 0Z" fill="#6198ff"></path><path d="M0 145L13.7 149C27.3 153 54.7 161 82 162C109.3 163 136.7 157 163.8 155C191 153 218 155 245.2 155C272.3 155 299.7 153 327 149C354.3 145 381.7 139 409 137C436.3 135 463.7 137 491 144C518.3 151 545.7 163 573 165C600.3 167 627.7 159 654.8 153C682 147 709 143 736.2 137C763.3 131 790.7 123 818 119C845.3 115 872.7 115 886.3 115L900 115L900 41L886.3 41C872.7 41 845.3 41 818 43C790.7 45 763.3 49 736.2 57C709 65 682 77 654.8 79C627.7 81 600.3 73 573 68C545.7 63 518.3 61 491 59C463.7 57 436.3 55 409 60C381.7 65 354.3 77 327 85C299.7 93 272.3 97 245.2 98C218 99 191 97 163.8 95C136.7 93 109.3 91 82 88C54.7 85 27.3 81 13.7 79L0 77Z" fill="#3c80ff"></path><path d="M0 283L13.7 295C27.3 307 54.7 331 82 324C109.3 317 136.7 279 163.8 280C191 281 218 321 245.2 322C272.3 323 299.7 285 327 291C354.3 297 381.7 347 409 361C436.3 375 463.7 353 491 335C518.3 317 545.7 303 573 289C600.3 275 627.7 261 654.8 257C682 253 709 259 736.2 273C763.3 287 790.7 309 818 327C845.3 345 872.7 359 886.3 366L900 373L900 113L886.3 113C872.7 113 845.3 113 818 117C790.7 121 763.3 129 736.2 135C709 141 682 145 654.8 151C627.7 157 600.3 165 573 163C545.7 161 518.3 149 491 142C463.7 135 436.3 133 409 135C381.7 137 354.3 143 327 147C299.7 151 272.3 153 245.2 153C218 153 191 151 163.8 153C136.7 155 109.3 161 82 160C54.7 159 27.3 151 13.7 147L0 143Z" fill="#0066ff"></path><path d="M0 451L13.7 467C27.3 483 54.7 515 82 518C109.3 521 136.7 495 163.8 494C191 493 218 517 245.2 528C272.3 539 299.7 537 327 533C354.3 529 381.7 523 409 510C436.3 497 463.7 477 491 474C518.3 471 545.7 485 573 498C600.3 511 627.7 523 654.8 523C682 523 709 511 736.2 503C763.3 495 790.7 491 818 494C845.3 497 872.7 507 886.3 512L900 517L900 371L886.3 364C872.7 357 845.3 343 818 325C790.7 307 763.3 285 736.2 271C709 257 682 251 654.8 255C627.7 259 600.3 273 573 287C545.7 301 518.3 315 491 333C463.7 351 436.3 373 409 359C381.7 345 354.3 295 327 289C299.7 283 272.3 321 245.2 320C218 319 191 279 163.8 278C136.7 277 109.3 315 82 322C54.7 329 27.3 305 13.7 293L0 281Z" fill="#0059dd"></path><path d="M0 601L13.7 601C27.3 601 54.7 601 82 601C109.3 601 136.7 601 163.8 601C191 601 218 601 245.2 601C272.3 601 299.7 601 327 601C354.3 601 381.7 601 409 601C436.3 601 463.7 601 491 601C518.3 601 545.7 601 573 601C600.3 601 627.7 601 654.8 601C682 601 709 601 736.2 601C763.3 601 790.7 601 818 601C845.3 601 872.7 601 886.3 601L900 601L900 515L886.3 510C872.7 505 845.3 495 818 492C790.7 489 763.3 493 736.2 501C709 509 682 521 654.8 521C627.7 521 600.3 509 573 496C545.7 483 518.3 469 491 472C463.7 475 436.3 495 409 508C381.7 521 354.3 527 327 531C299.7 535 272.3 537 245.2 526C218 515 191 491 163.8 492C136.7 493 109.3 519 82 516C54.7 513 27.3 481 13.7 465L0 449Z" fill="#004cbb"></path></svg>