<svg id="visual" viewBox="0 0 900 900" width="500" height="500" xmlns="http://www.w3.org/2000/svg" xmlns:xlink="http://www.w3.org/1999/xlink" version="1.1"><rect x="0" y="0" width="100%" height="100%" fill="#b8e8cf"></rect><path d="M0 669L21.5 676.8C43 684.7 86 700.3 128.8 700.8C171.7 701.3 214.3 686.7 257.2 693C300 699.3 343 726.7 385.8 732.5C428.7 738.3 471.3 722.7 514.2 720.3C557 718 600 729 642.8 724C685.7 719 728.3 698 771.2 683.5C814 669 857 661 878.5 657L900 653L900 901L878.5 901C857 901 814 901 771.2 901C728.3 901 685.7 901 642.8 901C600 901 557 901 514.2 901C471.3 901 428.7 901 385.8 901C343 901 300 901 257.2 901C214.3 901 171.7 901 128.8 901C86 901 43 901 21.5 901L0 901Z" fill="#fff" stroke-linecap="round" stroke-linejoin="miter"></path></svg>